<svg width="16" height="16" viewBox="0 0 16 16" fill="none" xmlns="http://www.w3.org/2000/svg">
<g opacity="0.7">
<path d="M13.75 1.75H2.25C1.97344 1.75 1.75 1.97344 1.75 2.25V13.75C1.75 14.0266 1.97344 14.25 2.25 14.25H13.75C14.0266 14.25 14.25 14.0266 14.25 13.75V2.25C14.25 1.97344 14.0266 1.75 13.75 1.75ZM9.35156 5.48281H11.5141V6.00938H9.35156V5.48281ZM8 9.825C7.89885 10.017 7.75442 10.1828 7.57812 10.3094C7.39375 10.4375 7.18906 10.5312 6.97188 10.5859C6.74465 10.6468 6.51024 10.6768 6.275 10.675H3.6875V5.34531H6.20312C6.45781 5.34531 6.68906 5.36875 6.9 5.4125C7.10938 5.45625 7.2875 5.53125 7.4375 5.63281C7.58594 5.73438 7.70312 5.87031 7.78594 6.03906C7.86719 6.20625 7.90938 6.41563 7.90938 6.66406C7.90938 6.93281 7.84844 7.15469 7.72656 7.33437C7.60312 7.51406 7.425 7.65937 7.18281 7.77344C7.5125 7.86719 7.75469 8.03438 7.91406 8.26875C8.07656 8.50625 8.15625 8.79063 8.15625 9.125C8.15625 9.39687 8.10469 9.62969 8 9.825ZM12.3562 9H9.56875C9.56875 9.30312 9.67344 9.59375 9.83125 9.75C9.99063 9.90469 10.2187 9.98281 10.5172 9.98281C10.7328 9.98281 10.9156 9.92813 11.0719 9.82031C11.2266 9.7125 11.3203 9.59844 11.3547 9.47969H12.2891C12.1391 9.94375 11.9109 10.275 11.6016 10.475C11.2953 10.675 10.9203 10.775 10.4844 10.775C10.1797 10.775 9.90625 10.725 9.66094 10.6297C9.425 10.5375 9.2125 10.3969 9.0375 10.2156C8.86495 10.0295 8.73158 9.81057 8.64531 9.57187C8.55 9.30781 8.50313 9.02969 8.50625 8.75C8.50625 8.46094 8.55469 8.19219 8.64844 7.94219C8.82812 7.45625 9.20156 7.06719 9.67813 6.86562C9.93281 6.75937 10.2063 6.70625 10.4828 6.70937C10.8109 6.70937 11.0953 6.77188 11.3422 6.9C11.5799 7.02235 11.7862 7.1977 11.9453 7.4125C12.1031 7.62656 12.2141 7.87031 12.2844 8.14531C12.3516 8.41562 12.375 8.7 12.3562 9V9ZM10.45 7.50625C10.2812 7.50625 10.1391 7.53594 10.0297 7.59375C9.92031 7.65156 9.82969 7.72344 9.76094 7.80625C9.69546 7.88621 9.64707 7.97874 9.61875 8.07812C9.59375 8.16094 9.57656 8.24531 9.57031 8.33125H11.2969C11.2719 8.06094 11.1781 7.86094 11.0531 7.72031C10.9219 7.58125 10.7109 7.50625 10.45 7.50625V7.50625ZM6.56719 7.34844C6.70312 7.25 6.76875 7.0875 6.76875 6.86406C6.77344 6.75781 6.75156 6.65313 6.70469 6.55781C6.6625 6.48125 6.6 6.41719 6.52344 6.37187C6.44405 6.32373 6.35588 6.29186 6.26406 6.27812C6.16406 6.25937 6.0625 6.25 5.9625 6.25156H4.86406V7.49687H6.05312C6.25781 7.49844 6.43125 7.44844 6.56719 7.34844V7.34844ZM6.75156 8.47344C6.59844 8.35625 6.39375 8.29844 6.13906 8.29844H4.86094V9.76719H6.11406C6.23125 9.76719 6.33906 9.75625 6.44375 9.73438C6.54844 9.7125 6.64219 9.675 6.72188 9.62187C6.80156 9.57031 6.86563 9.5 6.91406 9.40938C6.96094 9.31875 6.98438 9.20312 6.98438 9.06406C6.98438 8.7875 6.90625 8.59219 6.75156 8.47344V8.47344Z" fill="#88A7D4"/>
</g>
</svg>
