<svg width="16" height="16" viewBox="0 0 16 16" fill="none" xmlns="http://www.w3.org/2000/svg">
<g opacity="0.7">
<path d="M1.25919 4.22884L7.25919 7.45204C7.46079 7.56004 7.72159 7.61124 7.98399 7.61124C8.24639 7.61124 8.50719 7.56004 8.70879 7.45204L14.7088 4.22884C15.1 4.01844 15.4696 3.20004 14.752 3.20004H1.21679C0.499189 3.20004 0.868789 4.01844 1.25919 4.22884ZM14.8904 5.99124L8.70879 9.21284C8.43679 9.35524 8.24639 9.37204 7.98399 9.37204C7.72159 9.37204 7.53119 9.35524 7.25919 9.21284C6.98719 9.07044 1.55279 6.22164 1.10879 5.99044C0.796789 5.82724 0.799989 6.01844 0.799989 6.16564V12C0.799989 12.336 1.25279 12.8 1.59999 12.8H14.4C14.7472 12.8 15.2 12.336 15.2 12V6.16644C15.2 6.01924 15.2032 5.82804 14.8904 5.99124Z" fill="#88A7D4"/>
</g>
</svg>
